<svg width="158" height="53" viewBox="0 0 158 53" fill="none" xmlns="http://www.w3.org/2000/svg">
<path d="M22.22 13.212L21.296 18.536H14.432V43H7.172V18.536H0.088V13.212H22.22ZM25.0288 13.212C25.2928 13.212 25.8208 13.212 26.6128 13.212C27.4048 13.1827 28.2848 13.168 29.2528 13.168C30.2208 13.168 31.1594 13.168 32.0688 13.168C32.9781 13.1387 33.6821 13.124 34.1808 13.124C37.9354 13.124 40.7514 13.8427 42.6288 15.28C44.5061 16.7173 45.4448 18.844 45.4448 21.66C45.4448 23.5373 44.9901 25.092 44.0808 26.324C43.1714 27.5267 41.9394 28.4653 40.3848 29.14C41.2648 29.6387 42.0421 30.2987 42.7168 31.12C43.3914 31.9413 44.0368 32.9387 44.6528 34.112C45.2688 35.256 45.8848 36.576 46.5008 38.072C47.1461 39.568 47.8501 41.2107 48.6128 43H40.8248C39.8861 40.9467 39.0941 39.1427 38.4488 37.588C37.8034 36.004 37.2021 34.684 36.6448 33.628C36.0874 32.5427 35.5301 31.736 34.9728 31.208C34.4448 30.6507 33.7994 30.372 33.0368 30.372H32.2888V43H25.0288V13.212ZM32.2888 25.84H34.1368C35.1634 25.84 36.0288 25.532 36.7328 24.916C37.4661 24.2707 37.8328 23.2733 37.8328 21.924C37.8328 21.3667 37.7594 20.8533 37.6128 20.384C37.4954 19.8853 37.2901 19.46 36.9968 19.108C36.7034 18.7267 36.2928 18.4333 35.7648 18.228C35.2661 17.9933 34.6501 17.876 33.9168 17.876H32.2888V25.84ZM60.764 13.212H67.232L78.144 43H70.796L68.596 35.828H58.96L56.672 43H49.456L60.764 13.212ZM66.968 30.46C66.6747 29.6093 66.3667 28.7293 66.044 27.82C65.7507 26.8813 65.4573 25.972 65.164 25.092C64.9 24.212 64.6507 23.3907 64.416 22.628C64.1813 21.836 63.976 21.176 63.8 20.648C63.624 21.2053 63.4187 21.88 63.184 22.672C62.9493 23.4347 62.6853 24.256 62.392 25.136C62.128 26.016 61.8347 26.9107 61.512 27.82C61.2187 28.7293 60.9253 29.6093 60.632 30.46H66.968ZM96.625 20.472C95.8037 19.4747 95.0117 18.8147 94.249 18.492C93.4864 18.14 92.7237 17.964 91.961 17.964C90.0544 17.964 88.661 18.8587 87.781 20.648C86.9304 22.408 86.505 24.8573 86.505 27.996C86.505 29.492 86.593 30.8707 86.769 32.132C86.9744 33.364 87.3117 34.42 87.781 35.3C88.2504 36.18 88.8664 36.8693 89.629 37.368C90.421 37.8667 91.4037 38.116 92.577 38.116C93.6037 38.116 94.601 37.9987 95.569 37.764C96.5664 37.5 97.4757 37.2067 98.297 36.884L99.881 41.812C98.9717 42.1933 97.8277 42.5307 96.449 42.824C95.0704 43.1173 93.4864 43.264 91.697 43.264C87.1797 43.264 83.8797 41.988 81.797 39.436C79.7144 36.8547 78.673 33.2027 78.673 28.48C78.673 26.192 78.937 24.0947 79.465 22.188C80.0224 20.2813 80.8437 18.6387 81.929 17.26C83.0437 15.852 84.4224 14.7667 86.065 14.004C87.737 13.212 89.7024 12.816 91.961 12.816C93.1344 12.816 94.161 12.9187 95.041 13.124C95.9504 13.3293 96.7424 13.608 97.417 13.96C98.0917 14.2827 98.6784 14.664 99.177 15.104C99.705 15.544 100.174 15.9987 100.585 16.468L96.625 20.472ZM103.833 13.212H111.093V43H103.833V13.212ZM127.065 13.212C126.655 15.2947 126.171 17.084 125.613 18.58C125.085 20.076 124.499 21.3813 123.853 22.496C123.208 23.5813 122.519 24.5053 121.785 25.268C121.052 26.0307 120.289 26.72 119.497 27.336L129.793 43H121.697L111.577 26.676V26.148C112.868 25.532 113.953 24.8133 114.833 23.992C115.743 23.1413 116.505 22.188 117.121 21.132C117.737 20.0467 118.251 18.8587 118.661 17.568C119.101 16.248 119.497 14.796 119.849 13.212H127.065ZM131.892 13.212C132.097 13.212 132.567 13.212 133.3 13.212C134.063 13.1827 134.928 13.168 135.896 13.168C136.864 13.168 137.861 13.168 138.888 13.168C139.944 13.1387 140.883 13.124 141.704 13.124C144.197 13.124 146.339 13.5053 148.128 14.268C149.947 15.0013 151.443 16.0427 152.616 17.392C153.789 18.7413 154.655 20.3547 155.212 22.232C155.769 24.08 156.048 26.1187 156.048 28.348C156.048 30.636 155.755 32.6893 155.168 34.508C154.611 36.3267 153.731 37.8813 152.528 39.172C151.355 40.4333 149.859 41.4013 148.04 42.076C146.221 42.7507 144.065 43.088 141.572 43.088C140.721 43.088 139.944 43.0733 139.24 43.044C138.536 43.044 137.817 43.044 137.084 43.044C136.351 43.044 135.573 43.0293 134.752 43C133.931 43 132.977 43 131.892 43V13.212ZM141.396 18.228C140.897 18.228 140.516 18.2427 140.252 18.272C139.988 18.272 139.621 18.272 139.152 18.272V37.94C139.533 37.9693 139.871 37.984 140.164 37.984C140.457 37.984 140.868 37.984 141.396 37.984C142.687 37.984 143.757 37.764 144.608 37.324C145.488 36.884 146.192 36.2533 146.72 35.432C147.248 34.6107 147.629 33.6133 147.864 32.44C148.099 31.2373 148.216 29.9027 148.216 28.436C148.216 21.6307 145.943 18.228 141.396 18.228Z" fill="url(#paint0_linear_502_25)"/>
<path d="M10 38C49.6335 25.695 77.5 17 152.5 34.5" stroke="url(#paint1_linear_502_25)" stroke-width="4"/>
<defs>
<linearGradient id="paint0_linear_502_25" x1="146.191" y1="-8.3426" x2="-3.16474" y2="25.144" gradientUnits="userSpaceOnUse">
<stop stop-color="#64F38C"/>
<stop offset="1" stop-color="#00E8F7"/>
</linearGradient>
<linearGradient id="paint1_linear_502_25" x1="141.849" y1="22.5221" x2="55.703" y2="91.5609" gradientUnits="userSpaceOnUse">
<stop stop-color="#64F38C"/>
<stop offset="1" stop-color="#00E8F7"/>
</linearGradient>
</defs>
</svg>
